<?xml version="1.0" standalone="no"?><svg xmlns="http://www.w3.org/2000/svg" viewBox="0 0 1440 320"><path fill="#ffd700" fill-opacity="1" d="M0,256L17.1,256C34.3,256,69,256,103,218.7C137.1,181,171,107,206,80C240,53,274,75,309,80C342.9,85,377,75,411,96C445.7,117,480,171,514,186.7C548.6,203,583,181,617,165.3C651.4,149,686,139,720,160C754.3,181,789,235,823,240C857.1,245,891,203,926,186.7C960,171,994,181,1029,197.3C1062.9,213,1097,235,1131,202.7C1165.7,171,1200,85,1234,85.3C1268.6,85,1303,171,1337,197.3C1371.4,224,1406,192,1423,176L1440,160L1440,0L1422.9,0C1405.7,0,1371,0,1337,0C1302.9,0,1269,0,1234,0C1200,0,1166,0,1131,0C1097.1,0,1063,0,1029,0C994.3,0,960,0,926,0C891.4,0,857,0,823,0C788.6,0,754,0,720,0C685.7,0,651,0,617,0C582.9,0,549,0,514,0C480,0,446,0,411,0C377.1,0,343,0,309,0C274.3,0,240,0,206,0C171.4,0,137,0,103,0C68.6,0,34,0,17,0L0,0Z"></path></svg>